<svg xmlns="http://www.w3.org/2000/svg" xmlns:xlink="http://www.w3.org/1999/xlink" width="16" height="18" viewBox="0 0 16 18" fill="none"><g opacity="1" transform="translate(0 0)  rotate(0 8 9)"><path id="形状" fill-rule="evenodd" style="fill:#999999" transform="translate(3.6809816 -5.4489476e-16)  rotate(0 4.2944785 4.2944785)" opacity="1" d="M8.59 4.29C8.59 1.92 6.67 0 4.29 0C1.92 0 0 1.92 0 4.29C0 6.67 1.92 8.59 4.29 8.59C6.67 8.59 8.59 6.67 8.59 4.29Z M7.35699 4.29699C7.35699 2.59699 5.98699 1.22699 4.29699 1.22699C2.59699 1.22699 1.22699 2.59699 1.22699 4.29699C1.22699 5.98699 2.59699 7.35699 4.29699 7.35699C5.98699 7.35699 7.35699 5.98699 7.35699 4.29699Z " /><path id="路径" fill-rule="evenodd" style="fill:#999999" transform="translate(6.7484665 4.9079757)  rotate(0 1.2269939 0.61349695)" opacity="1" d="M1.23,1.23C1.9,1.23 2.45,0.68 2.45,0L0,0C0,0.68 0.55,1.23 1.23,1.23Z " /><path id="形状" fill-rule="evenodd" style="fill:#999999" transform="translate(0 9.815951)  rotate(0 7.97546 3.68098165)" opacity="1" d="M0 3.68C0 5.71 1.78 7.36 3.99 7.36L11.96 7.36C14.17 7.36 15.95 5.71 15.95 3.68C15.95 1.65 14.17 0 11.96 0L3.99 0C1.78 0 0 1.65 0 3.68Z M1.22699 3.67699C1.22699 5.03699 2.43699 6.13699 3.92699 6.13699L12.027 6.13699C13.517 6.13699 14.727 5.03699 14.727 3.67699C14.727 2.32699 13.517 1.22699 12.027 1.22699L3.92699 1.22699C2.43699 1.22699 1.22699 2.32699 1.22699 3.67699Z " /></g></svg>
